<svg width="3840" height="3840" viewBox="0 0 3840 3840" fill="none" xmlns="http://www.w3.org/2000/svg">
<path d="M1937.1 19.606C1939.15 20.0565 1941.2 20.4767 1943.26 20.8963C1955.68 23.5651 1964.98 29.3757 1975.09 36.9063C1978.78 39.5676 1982.58 42.0087 1986.42 44.4406C1990.63 47.115 1994.8 49.8534 1998.94 52.6329C2006.93 57.9709 2014.95 63.2399 2022.99 68.4999C2031.55 74.1021 2040.09 79.7229 2048.6 85.4049C2054.47 89.3288 2060.38 93.2038 2066.3 97.0629C2067.32 97.7248 2068.33 98.3867 2069.37 99.0687C2070.82 100.011 2070.82 100.011 2072.29 100.973C2073.15 101.532 2074.01 102.092 2074.89 102.668C2076.93 104.014 2076.93 104.014 2078.99 105V107C2080.07 107.398 2080.07 107.398 2081.18 107.805C2084.02 109.013 2086.4 110.428 2088.98 112.125C2089.93 112.744 2090.87 113.363 2091.85 114.001C2092.84 114.661 2093.84 115.32 2094.87 116C2095.89 116.677 2096.92 117.354 2097.99 118.051C2100.99 120.029 2103.99 122.013 2106.99 124C2107.75 124.502 2108.51 125.004 2109.29 125.522C2112.92 127.928 2116.53 130.346 2120.15 132.769C2132.56 141.076 2145.02 149.297 2157.49 157.5C2170.89 166.31 2184.26 175.155 2197.58 184.074C2206.9 190.307 2216.26 196.45 2225.65 202.562C2232.23 206.846 2238.79 211.167 2245.31 215.536C2248.74 217.831 2252.17 220.12 2255.6 222.406C2260.93 225.957 2266.25 229.511 2271.58 233.068C2275.21 235.49 2278.83 237.911 2282.46 240.333C2284.32 241.574 2286.18 242.816 2288.04 244.058C2301.35 252.964 2301.35 252.964 2314.82 261.628C2318 263.636 2321.12 265.717 2324.24 267.812C2324.87 268.233 2325.5 268.653 2326.14 269.086C2328.71 270.805 2331.28 272.526 2333.85 274.247C2341.03 279.056 2348.23 283.819 2355.49 288.5C2362.76 293.185 2369.96 297.953 2377.15 302.766C2380.26 304.849 2383.37 306.924 2386.49 309C2387.74 309.833 2388.99 310.667 2390.24 311.5C2391.17 312.119 2391.17 312.119 2392.11 312.75C2397.74 316.5 2397.74 316.5 2399.61 317.75C2400.87 318.584 2402.12 319.418 2403.37 320.252C2406.47 322.32 2409.57 324.389 2412.67 326.465C2419.12 330.781 2425.59 335.049 2432.11 339.25C2441.37 345.214 2450.53 351.33 2459.68 357.455C2461.66 358.781 2463.65 360.103 2465.64 361.422C2471 364.981 2476.31 368.6 2481.54 372.359C2484.01 374.015 2486.57 375.453 2489.16 376.911C2492.86 379.113 2496.27 381.736 2499.74 384.289C2503.11 386.739 2506.5 388.908 2510.15 390.936C2513.71 392.993 2517.08 395.329 2520.49 397.625C2522.09 398.695 2523.68 399.766 2525.28 400.836C2526.47 401.634 2526.47 401.634 2527.68 402.448C2531.07 404.724 2534.47 406.987 2537.87 409.25L2541.53 411.695C2542.4 412.276 2542.4 412.276 2543.29 412.868C2551.18 418.125 2551.18 418.125 2553.94 419.966C2555.83 421.224 2557.71 422.482 2559.6 423.739C2564.71 427.142 2569.81 430.547 2574.91 433.956C2577.74 435.844 2580.56 437.731 2583.39 439.618C2584.83 440.582 2586.28 441.547 2587.72 442.512C2595.32 447.594 2602.94 452.644 2610.67 457.527C2613.89 459.572 2617.07 461.684 2620.24 463.812C2620.87 464.233 2621.5 464.653 2622.14 465.086C2624.71 466.805 2627.28 468.526 2629.85 470.247C2637.74 475.531 2645.66 480.744 2653.64 485.888C2661.98 491.269 2670.22 496.787 2678.45 502.332C2679.52 503.047 2680.58 503.763 2681.68 504.5C2682.61 505.129 2683.54 505.758 2684.5 506.406C2686.62 507.764 2688.71 508.933 2690.99 510V512C2691.56 512.102 2692.12 512.204 2692.71 512.309C2695.43 513.133 2697.2 514.384 2699.49 516.062C2707.03 521.48 2714.76 526.609 2722.61 531.562C2726.04 533.726 2729.38 535.958 2732.68 538.312C2737.01 541.388 2741.47 544.207 2745.99 547C2751.25 550.253 2756.38 553.598 2761.42 557.188C2771.9 564.581 2782.76 571.466 2793.51 578.464C2800.74 583.174 2807.93 587.932 2815.1 592.736C2818.73 595.163 2822.36 597.581 2825.99 600C2827.52 601.018 2829.04 602.036 2830.57 603.055C2831.31 603.549 2832.06 604.044 2832.82 604.554C2838.94 608.633 2838.94 608.633 2840.83 609.892C2842.05 610.708 2843.28 611.523 2844.5 612.338C2847.67 614.453 2850.84 616.574 2854.01 618.703C2855.01 619.374 2855.01 619.374 2856.03 620.058C2857.29 620.904 2858.55 621.752 2859.81 622.602C2863.77 625.261 2867.82 627.671 2871.99 630V632C2872.69 632.268 2873.39 632.536 2874.11 632.812C2877.15 634.068 2880.06 635.502 2882.99 637V639C2883.7 639.254 2884.41 639.508 2885.13 639.77C2888.26 641.118 2890.86 642.773 2893.68 644.688C2894.72 645.396 2895.77 646.105 2896.85 646.836C2900.5 649.35 2904.13 651.887 2907.74 654.457C2911.34 656.927 2915.05 659.103 2918.99 661V663C2919.71 663.263 2920.43 663.527 2921.17 663.798C2924.07 665.035 2926.52 666.499 2929.16 668.23C2930.13 668.869 2931.11 669.508 2932.12 670.166C2933.13 670.833 2934.14 671.5 2935.18 672.188C2936.17 672.835 2937.16 673.483 2938.18 674.15C2942.85 677.216 2947.48 680.324 2952.04 683.551C2956.31 686.562 2960.68 689.384 2965.1 692.169C2970.35 695.493 2975.54 698.909 2980.74 702.312C2981.59 702.871 2981.59 702.871 2982.46 703.44C2990.76 708.871 2999.04 714.331 3007.28 719.854C3010.41 721.95 3013.54 724.037 3016.68 726.125L3020.4 728.609C3021 729.008 3021.6 729.407 3022.22 729.818C3035.99 739 3035.99 739 3038.97 740.996C3041.88 742.924 3044.8 744.815 3047.74 746.688C3048.68 747.289 3049.63 747.891 3050.6 748.512C3052.89 749.987 3052.89 749.987 3054.99 751V753H3057.99V755C3058.71 755.268 3059.44 755.536 3060.19 755.812C3062.97 756.993 3065.33 758.355 3067.87 760C3068.83 760.623 3069.79 761.245 3070.78 761.887C3078.23 766.789 3085.64 771.745 3093.04 776.723C3093.7 777.167 3094.36 777.611 3095.04 778.069C3096.3 778.911 3097.55 779.755 3098.8 780.601C3102.77 783.26 3106.82 785.671 3110.99 788V790C3112.05 790.382 3112.05 790.382 3113.13 790.771C3116.28 792.124 3118.95 793.783 3121.81 795.668C3122.36 796.026 3122.91 796.384 3123.47 796.753C3124.62 797.509 3125.78 798.268 3126.93 799.03C3128.65 800.171 3130.38 801.306 3132.11 802.439C3138.02 806.315 3143.85 810.278 3149.62 814.349C3153.63 817.143 3157.75 819.787 3161.87 822.438C3163.63 823.582 3165.4 824.726 3167.17 825.871C3168 826.414 3168.84 826.956 3169.7 827.515C3176.09 831.665 3182.42 835.913 3188.69 840.234C3189.53 840.813 3190.38 841.392 3191.24 841.988C3192.91 843.134 3194.57 844.282 3196.23 845.434C3200.72 848.523 3205.23 851.362 3209.99 854C3211.48 854.863 3212.96 855.736 3214.43 856.625C3215.11 857.03 3215.79 857.435 3216.49 857.852C3216.98 858.231 3217.48 858.61 3217.99 859V861C3218.87 861.254 3219.76 861.508 3220.67 861.77C3224.06 863.027 3226.32 864.487 3229.18 866.688C3233.73 870.103 3238.38 873.216 3243.2 876.238C3248.2 879.393 3253.08 882.71 3257.99 886C3260.76 887.856 3263.53 889.71 3266.3 891.562C3267.05 892.062 3267.8 892.561 3268.57 893.076C3272.98 896.021 3277.42 898.935 3281.87 901.824C3283.38 902.802 3283.38 902.802 3284.92 903.801C3286.86 905.061 3288.81 906.318 3290.76 907.573C3293.52 909.36 3296.25 911.177 3298.99 913C3300.01 913.655 3301.04 914.311 3302.09 914.986C3303.59 915.991 3303.59 915.991 3305.12 917.016C3306.03 917.611 3306.94 918.207 3307.88 918.821C3312.32 923.4 3311.1 930.811 3311.02 936.855C3310.97 944.654 3311.04 952.442 3311.21 960.238C3311.23 961.291 3311.25 962.344 3311.28 963.429C3311.32 965.605 3311.37 967.781 3311.42 969.958C3311.75 985.369 3312.07 1000.77 3311.99 1016.19C3311.95 1023.91 3311.98 1031.63 3312.21 1039.35C3312.23 1040.09 3312.25 1040.84 3312.28 1041.61C3312.32 1043.18 3312.37 1044.75 3312.42 1046.32C3313.07 1068.23 3313.07 1090.14 3313.05 1112.06V1114.68C3313.04 1125.45 3313.02 1136.23 3312.99 1147C3313.61 1147.31 3314.23 1147.61 3314.87 1147.93C3317 1149 3318.99 1150.19 3321.01 1151.47C3321.78 1151.95 3322.54 1152.44 3323.34 1152.93C3324.15 1153.45 3324.96 1153.97 3325.8 1154.5C3327.07 1155.3 3327.07 1155.3 3328.36 1156.12C3334.24 1159.85 3340.06 1163.67 3345.84 1167.55C3349.46 1169.99 3353.11 1172.36 3356.8 1174.69C3361.15 1177.42 3365.34 1180.32 3369.51 1183.32C3371.98 1185 3374.54 1186.46 3377.15 1187.93C3380.27 1189.75 3383.25 1191.78 3386.24 1193.81C3392.43 1197.97 3398.68 1202.03 3404.99 1206C3417.14 1213.68 3429.24 1221.46 3441.18 1229.47C3442 1230.02 3442.82 1230.57 3443.66 1231.14C3445.23 1232.19 3446.78 1233.25 3448.34 1234.31C3449.04 1234.78 3449.74 1235.25 3450.46 1235.73C3451.07 1236.15 3451.68 1236.56 3452.31 1236.99C3454.13 1238.17 3454.13 1238.17 3456.99 1239V1241C3458.01 1241.35 3458.01 1241.35 3459.05 1241.71C3462.65 1243.29 3465.77 1245.4 3468.99 1247.62C3480.18 1255.32 3480.18 1255.32 3491.99 1262V1264C3492.86 1264.25 3493.74 1264.51 3494.63 1264.77C3498.1 1266.04 3500.66 1267.59 3503.68 1269.69C3507.58 1272.36 3511.49 1274.98 3515.49 1277.5C3519.23 1279.87 3522.94 1282.28 3526.61 1284.75C3531.48 1288.01 3536.38 1291.2 3541.3 1294.38C3547.35 1298.27 3553.35 1302.22 3559.32 1306.23C3564.79 1309.88 3570.31 1313.46 3575.85 1317.02C3580.09 1319.76 3584.3 1322.54 3588.49 1325.38C3593.19 1328.53 3597.98 1331.37 3602.99 1334V1336C3604.01 1336.36 3604.01 1336.36 3605.04 1336.73C3608.64 1338.28 3611.88 1340.28 3615.18 1342.38C3616.22 1343.03 3616.22 1343.03 3617.28 1343.7C3623.38 1347.57 3629.4 1351.57 3635.4 1355.6C3640.03 1358.7 3644.67 1361.75 3649.37 1364.75C3658.05 1370.3 3666.66 1375.94 3674.99 1382C3671.57 1385.85 3667.52 1388.61 3662.99 1391H3660.99V1393C3660.46 1393.29 3659.92 1393.58 3659.38 1393.88C3653.44 1397.13 3647.67 1400.6 3641.93 1404.19C3641.02 1404.75 3640.11 1405.32 3639.17 1405.9C3637.32 1407.05 3635.47 1408.21 3633.62 1409.36C3631.21 1410.86 3628.8 1412.36 3626.38 1413.86C3618.43 1418.79 3618.43 1418.79 3610.61 1423.94C3605.54 1427.37 3600.28 1430.51 3595.05 1433.7C3582.65 1441.24 3570.39 1449.01 3558.15 1456.81C3551.9 1460.79 3545.63 1464.74 3539.34 1468.66C3532.8 1472.74 3526.3 1476.86 3519.84 1481.04C3512.52 1485.78 3505.12 1490.38 3497.67 1494.91C3493.03 1497.74 3488.43 1500.61 3483.87 1503.56C3477.02 1508 3470.11 1512.34 3463.18 1516.64C3461.64 1517.6 3460.1 1518.56 3458.56 1519.51C3456.08 1521.06 3453.6 1522.59 3451.11 1524.12C3450.34 1524.61 3449.56 1525.1 3448.75 1525.6C3447.67 1526.26 3447.67 1526.26 3446.56 1526.95C3445.92 1527.34 3445.28 1527.74 3444.62 1528.15C3442.99 1529 3442.99 1529 3440.99 1529V1531C3440.09 1531.46 3440.09 1531.46 3439.18 1531.93C3432.53 1535.43 3426.26 1539.34 3419.98 1543.46C3413.14 1547.94 3406.19 1552.24 3399.21 1556.5C3395.49 1558.78 3391.83 1561.06 3388.31 1563.63C3385.64 1565.58 3382.88 1567.25 3379.98 1568.86C3377.54 1570.26 3375.16 1571.74 3372.78 1573.23C3371.41 1574.09 3371.41 1574.09 3370.01 1574.97C3368.1 1576.17 3366.19 1577.37 3364.29 1578.57C3363.38 1579.14 3362.47 1579.71 3361.53 1580.3C3360.71 1580.82 3359.88 1581.34 3359.03 1581.87C3356.99 1583 3356.99 1583 3354.99 1583V1585C3354.5 1585.26 3354.02 1585.51 3353.51 1585.78C3348.15 1588.67 3343.04 1591.87 3337.93 1595.2C3331.73 1599.22 3325.38 1603 3319.01 1606.75C3315.29 1608.95 3311.65 1611.18 3308.15 1613.71C3305.72 1615.47 3303.45 1616.94 3300.8 1618.31C3295.92 1620.95 3291.37 1624.02 3286.79 1627.13C3284.23 1628.84 3281.64 1630.44 3278.99 1632C3280.24 1635.65 3280.66 1636.78 3283.99 1639V1641C3284.89 1641.4 3284.89 1641.4 3285.8 1641.81C3288.06 1643.04 3289.38 1644.01 3290.99 1646C3293.08 1658.05 3290.95 1671.97 3290.53 1684.17C3290.16 1695.44 3289.82 1706.7 3289.53 1717.97C3289.51 1718.69 3289.49 1719.41 3289.47 1720.16C3289.37 1723.9 3289.27 1727.65 3289.17 1731.39C3288.96 1739.57 3288.75 1747.75 3288.53 1755.93C3288.5 1757.19 3288.5 1757.19 3288.46 1758.46C3288.14 1770.55 3287.8 1782.64 3287.45 1794.72C3287.43 1795.47 3287.41 1796.22 3287.38 1797C3287.28 1800.73 3287.17 1804.47 3287.06 1808.2C3287.01 1809.68 3286.97 1811.15 3286.93 1812.62C3286.91 1813.36 3286.88 1814.09 3286.86 1814.84C3286.29 1834.57 3285.79 1854.29 3285.44 1874.02C3285.1 1892.39 3284.49 1910.75 3283.86 1929.11C3283.21 1947.69 3282.69 1966.27 3282.31 1984.87C3282.1 1995.12 3281.84 2005.37 3281.49 2015.62C3281.07 2027.73 3280.76 2039.83 3280.49 2051.94C3280.46 2053.3 3280.46 2053.3 3280.43 2054.69C3280.34 2058.37 3280.26 2062.05 3280.18 2065.73C3279.96 2075.51 3279.73 2085.29 3279.49 2095.06C3279.47 2095.89 3279.45 2096.73 3279.43 2097.58C3279.15 2109.03 3278.79 2120.47 3278.29 2131.91C3278.11 2136.26 3277.98 2140.59 3278.03 2144.95C3277.99 2150.64 3277.46 2156.32 3276.99 2162H3214.99C3215 2169.13 3215 2169.13 3215 2176.4C3215.08 2259.54 3215.16 2342.68 3215.2 2425.82V2429.76C3215.22 2457.33 3215.23 2484.91 3215.24 2512.49C3215.25 2526.34 3215.26 2540.19 3215.26 2554.04C3215.26 2556.13 3215.27 2558.22 3215.27 2560.31C3215.28 2592.49 3215.3 2624.67 3215.33 2656.86C3215.33 2657.55 3215.33 2658.24 3215.34 2658.96L3215.37 2692.44C3215.4 2724.58 3215.43 2756.71 3215.45 2788.85V2790.85C3215.45 2804.7 3215.46 2818.55 3215.46 2832.4V2851.86C3215.46 2853.77 3215.47 2853.77 3215.47 2855.72C3215.47 2876.31 3215.49 2896.89 3215.52 2917.47C3215.55 2938.14 3215.56 2958.81 3215.56 2979.48C3215.55 2991.78 3215.56 3004.07 3215.59 3016.36C3215.61 3024.56 3215.61 3032.76 3215.6 3040.97C3215.59 3045.65 3215.59 3050.33 3215.61 3055.01C3215.63 3059.26 3215.63 3063.51 3215.61 3067.76C3215.61 3069.3 3215.61 3070.83 3215.63 3072.36C3215.64 3074.44 3215.63 3076.51 3215.61 3078.58V3082.07C3214.99 3085 3214.99 3085 3212.65 3087.33C3209.84 3089.1 3207.15 3090 3203.99 3091C3203.49 3091.99 3203.49 3091.99 3202.99 3093C3201.42 3094.01 3199.81 3094.96 3198.18 3095.88C3192.43 3099.16 3186.73 3102.53 3181.05 3105.94C3180.19 3106.45 3179.33 3106.97 3178.44 3107.5C3174.61 3109.81 3170.78 3112.12 3166.99 3114.48C3166.4 3114.85 3165.81 3115.21 3165.2 3115.59C3163.67 3116.55 3162.15 3117.51 3160.62 3118.48C3158.13 3119.92 3155.69 3121.01 3152.99 3122V3124C3152.25 3124.35 3151.51 3124.7 3150.75 3125.07C3144.26 3128.23 3138.17 3131.66 3132.17 3135.68C3129.99 3137 3129.99 3137 3127.99 3137V3139C3126.82 3139.57 3125.65 3140.13 3124.45 3140.71C3120.35 3142.76 3116.52 3145.09 3112.68 3147.56C3106.4 3151.54 3100.04 3155.38 3093.61 3159.12C3092.79 3159.61 3091.96 3160.1 3091.11 3160.6C3090.34 3161.04 3089.57 3161.49 3088.78 3161.95C3088.1 3162.34 3087.41 3162.74 3086.71 3163.15C3084.99 3164 3084.99 3164 3082.99 3164V3166C3082.35 3166.34 3081.7 3166.68 3081.04 3167.03C3074.58 3170.5 3068.32 3174.2 3062.09 3178.07C3058.73 3180.16 3055.34 3182.19 3051.94 3184.21C3049.44 3185.73 3046.96 3187.27 3044.47 3188.82C3043.67 3189.32 3042.86 3189.82 3042.02 3190.34C3040.39 3191.35 3038.77 3192.37 3037.15 3193.39C3036.39 3193.86 3035.64 3194.32 3034.87 3194.8C3033.86 3195.44 3033.86 3195.44 3032.82 3196.09C3030.99 3197 3030.99 3197 3027.99 3197V3199C3027.45 3199.29 3026.92 3199.59 3026.36 3199.89C3020.58 3203.08 3014.89 3206.4 3009.24 3209.81C3008.36 3210.34 3007.49 3210.87 3006.58 3211.41C2997.81 3216.67 2997.81 3216.67 2989.17 3222.16C2986.63 3223.63 2984.64 3224.5 2981.9 3225.4C2977.32 3227.11 2973.56 3228.65 2970.99 3233C2968.78 3243.1 2969.44 3253.75 2969.99 3264C2961.01 3268.9 2951.99 3273.52 2942.69 3277.77C2938.23 3279.83 2934.1 3282.12 2929.96 3284.78C2926.71 3286.79 2923.3 3288.45 2919.87 3290.12C2918.85 3290.63 2918.85 3290.63 2917.81 3291.14C2916.49 3291.79 2915.16 3292.45 2913.83 3293.1C2911.21 3294.38 2908.6 3295.69 2905.99 3297L2900.59 3299.7C2899.23 3300.38 2897.87 3301.06 2896.52 3301.74C2892.95 3303.52 2889.39 3305.3 2885.81 3307.05C2884.45 3307.72 2883.1 3308.39 2881.74 3309.06C2881.08 3309.39 2880.42 3309.71 2879.74 3310.05C2874.46 3312.68 2869.49 3315.65 2864.54 3318.85C2861.99 3320 2861.99 3320 2859.43 3320.06C2855.88 3318.51 2854.7 3316.19 2852.68 3312.94C2851.98 3311.83 2851.28 3310.73 2850.56 3309.59C2850.04 3308.74 2849.53 3307.88 2848.99 3307C2845.82 3307.65 2843.4 3308.76 2840.6 3310.37C2839.33 3311.1 2839.33 3311.1 2838.04 3311.85C2837.13 3312.37 2836.23 3312.9 2835.3 3313.44C2834.37 3313.98 2833.43 3314.52 2832.47 3315.07C2825.94 3318.84 2819.44 3322.66 2812.95 3326.49C2805.52 3330.88 2798.02 3335.15 2790.52 3339.4C2776.77 3347.18 2776.77 3347.18 2763.35 3355.51C2760.11 3357.55 2756.76 3359.34 2753.39 3361.14C2746.02 3365.16 2738.77 3369.39 2731.49 3373.57C2729.3 3374.82 2727.11 3376.07 2724.91 3377.31C2718.6 3380.87 2712.43 3384.59 2706.35 3388.52C2703.63 3390.23 2700.9 3391.66 2697.99 3393C2699.02 3396.54 2700.26 3399.56 2702.18 3402.69C2702.78 3403.78 2703.37 3404.87 2703.99 3406C2702.8 3409.57 2702.06 3409.84 2698.9 3411.67C2698.05 3412.17 2697.21 3412.67 2696.33 3413.19C2695.43 3413.7 2694.54 3414.22 2693.61 3414.75C2691.88 3415.76 2690.14 3416.78 2688.4 3417.8C2687.51 3418.32 2686.62 3418.84 2685.71 3419.38C2682.04 3421.57 2678.45 3423.88 2674.85 3426.19C2669.77 3429.41 2664.59 3432.48 2659.43 3435.56C2658.37 3436.2 2657.31 3436.83 2656.22 3437.48C2654.13 3438.73 2652.04 3439.98 2649.96 3441.23C2643.51 3445.08 2637.07 3448.93 2630.68 3452.88C2629.57 3453.56 2628.46 3454.24 2627.32 3454.95C2625.2 3456.25 2623.09 3457.56 2620.97 3458.87C2613.44 3463.53 2605.84 3468.09 2598.24 3472.63C2592.95 3475.8 2587.72 3479.02 2582.57 3482.4C2580.33 3483.79 2578.07 3485.07 2575.75 3486.34C2571.04 3488.93 2566.52 3491.78 2561.99 3494.69C2555.93 3498.55 2549.83 3502.33 2543.61 3505.94C2532.02 3512.68 2520.66 3519.8 2509.31 3526.95C2508.59 3527.4 2507.87 3527.85 2507.12 3528.32C2505.79 3529.16 2504.46 3530 2503.14 3530.84C2495.64 3535.57 2495.64 3535.57 2491.99 3537C2485.76 3535.22 2479.53 3528.17 2475.99 3523V3521H2473.99C2473.49 3521.99 2473.49 3521.99 2472.99 3523C2471.51 3523.95 2470 3524.84 2468.46 3525.69C2467.51 3526.22 2466.56 3526.75 2465.59 3527.29C2464.56 3527.85 2463.54 3528.42 2462.49 3529C2460.38 3530.18 2458.27 3531.36 2456.17 3532.54C2455.12 3533.12 2454.07 3533.71 2452.99 3534.31C2448.86 3536.64 2444.76 3539.02 2440.68 3541.44C2439.99 3541.84 2439.31 3542.24 2438.6 3542.66C2433.99 3545.39 2429.41 3548.18 2424.87 3551.04C2422.99 3552 2422.99 3552 2419.99 3552V3554C2418.84 3554.63 2418.84 3554.63 2417.67 3555.28L2409 3560.08C2407.76 3560.77 2406.52 3561.45 2405.28 3562.14C2398.52 3565.88 2391.8 3569.67 2385.19 3573.68C2381.98 3575.61 2378.71 3577.43 2375.43 3579.25C2368.97 3582.85 2362.59 3586.56 2356.23 3590.33C2350.53 3593.7 2344.79 3596.98 2339.03 3600.24C2336.4 3601.76 2333.85 3603.35 2331.3 3605C2327.99 3607 2327.99 3607 2324.99 3607V3609H2321.99V3611C2321.43 3611.27 2320.87 3611.54 2320.29 3611.81C2309.58 3617.05 2299.36 3623.14 2289.16 3629.29C2283.46 3632.73 2277.73 3636.12 2271.99 3639.5C2263.3 3644.63 2254.63 3649.79 2245.99 3655C2231.44 3663.77 2216.81 3672.41 2202.16 3681.01C2196.17 3684.53 2190.19 3688.06 2184.24 3691.62C2183.33 3692.17 2183.33 3692.17 2182.39 3692.73C2179.35 3694.55 2176.33 3696.41 2173.34 3698.3C2172.76 3698.67 2172.17 3699.04 2171.57 3699.42C2169.97 3700.43 2168.38 3701.45 2166.79 3702.47C2164.11 3703.94 2162.01 3704.6 2158.99 3705V3707C2158.45 3707.2 2157.92 3707.39 2157.37 3707.59C2146.38 3711.79 2136.01 3717.35 2125.68 3722.94C2119.26 3726.41 2112.72 3729.55 2106.11 3732.64C2098.99 3735.98 2091.96 3739.47 2084.94 3743.02C2081.63 3744.69 2078.31 3746.34 2074.99 3748C2073.66 3748.67 2072.32 3749.33 2070.99 3750L2045.19 3762.9C2043.88 3763.55 2042.57 3764.21 2041.26 3764.86C2037.58 3766.71 2033.89 3768.54 2030.2 3770.38C2021.86 3774.52 2013.58 3778.73 2005.37 3783.12C1998.62 3786.73 1991.78 3789.93 1984.76 3792.96C1976.69 3796.49 1968.99 3800.67 1961.22 3804.82C1957.29 3806.9 1953.34 3808.94 1949.32 3810.85C1945.26 3812.8 1941.41 3814.93 1937.55 3817.26C1923.59 3825.33 1923.59 3825.33 1917.43 3824.76C1912.25 3823.24 1907.85 3820.45 1903.37 3817.5C1899.32 3814.94 1894.99 3812.96 1890.68 3810.88C1889 3810.03 1887.32 3809.19 1885.64 3808.34C1880.56 3805.78 1875.47 3803.24 1870.38 3800.7C1868.04 3799.53 1865.71 3798.36 1863.38 3797.18C1855.49 3793.2 1847.54 3789.35 1839.55 3785.56C1831.94 3781.95 1824.42 3778.2 1816.99 3774.21C1810.38 3770.65 1803.68 3767.3 1796.95 3763.98C1795.02 3763.02 1793.09 3762.05 1791.17 3761.07C1783.68 3757.3 1776.14 3753.64 1768.55 3750.06C1762.15 3747.04 1755.84 3743.92 1749.61 3740.56C1742.01 3736.46 1734.24 3732.72 1726.43 3729.02C1713.64 3722.94 1701.04 3716.55 1688.52 3709.94C1684.26 3707.7 1679.98 3705.49 1675.67 3703.35C1672.37 3701.71 1669.18 3700.01 1666.05 3698.06C1660.8 3694.85 1655.42 3691.91 1649.99 3689V3687C1649.42 3686.89 1648.85 3686.78 1648.27 3686.66C1645.7 3685.92 1643.82 3684.84 1641.55 3683.44C1640.68 3682.9 1639.8 3682.36 1638.9 3681.81C1636.88 3680.55 1634.85 3679.29 1632.83 3678.04C1627.92 3674.99 1623.03 3671.97 1617.93 3669.25C1606.61 3663.19 1595.71 3656.32 1584.8 3649.56C1579.94 3646.56 1575.01 3643.73 1569.99 3641C1566.11 3638.87 1562.4 3636.62 1558.74 3634.12C1554.56 3631.3 1550.23 3628.93 1545.79 3626.55C1543.05 3625.03 1540.43 3623.4 1537.8 3621.69C1531.4 3617.55 1524.76 3613.87 1518.09 3610.17C1515.3 3608.61 1512.51 3607.04 1509.72 3605.47C1502.84 3601.58 1495.94 3597.75 1488.99 3594V3592C1488.13 3591.74 1487.27 3591.49 1486.38 3591.22C1482.88 3589.96 1479.98 3588.37 1476.8 3586.44C1472.56 3583.87 1472.56 3583.87 1467.99 3582V3580C1467.45 3579.9 1466.9 3579.8 1466.34 3579.7C1463.37 3578.82 1461.03 3577.4 1458.37 3575.81C1457.3 3575.18 1456.24 3574.55 1455.14 3573.9C1453.22 3572.74 1451.29 3571.58 1449.37 3570.41C1444.22 3567.3 1439.01 3564.36 1433.71 3561.5C1431.1 3560.06 1428.54 3558.55 1425.99 3557C1422.64 3554.96 1419.26 3553.04 1415.8 3551.19C1410.53 3548.35 1405.4 3545.29 1400.29 3542.16C1397.57 3540.5 1394.87 3538.94 1392.01 3537.51C1387.71 3535.36 1383.66 3532.83 1379.56 3530.32C1375.78 3528.02 1371.98 3525.92 1367.99 3524V3522C1362.76 3523.48 1359.82 3526.82 1356.18 3530.62C1355.58 3531.24 1354.98 3531.85 1354.37 3532.48C1352.9 3533.98 1351.44 3535.49 1349.99 3537C1346.8 3535.76 1343.73 3534.42 1340.68 3532.88C1339.98 3532.52 1339.28 3532.17 1338.56 3531.8C1338.04 3531.54 1337.53 3531.27 1336.99 3531V3529C1336.14 3528.76 1335.29 3528.52 1334.41 3528.27C1330.67 3526.88 1327.58 3524.97 1324.3 3522.75C1319.14 3519.34 1313.91 3516.24 1308.44 3513.33C1305.55 3511.76 1302.78 3510.05 1300.01 3508.27C1297.74 3506.84 1295.43 3505.49 1293.11 3504.12C1289.58 3502.02 1286.21 3499.78 1282.87 3497.38C1279.43 3494.93 1276.07 3492.95 1272.26 3491.16C1268.61 3489.29 1265.17 3487.09 1261.7 3484.92C1258.97 3483.22 1256.25 3481.55 1253.43 3480C1250.26 3478.16 1247.27 3476.18 1244.24 3474.12C1239.49 3470.93 1234.67 3468.1 1229.62 3465.41C1222.06 3461.35 1214.84 3456.66 1207.58 3452.09C1202.09 3448.66 1196.55 3445.32 1190.99 3442C1184.43 3438.08 1177.91 3434.1 1171.45 3430.02C1163.85 3425.24 1156.13 3420.67 1148.42 3416.09C1147.38 3415.47 1146.35 3414.86 1145.29 3414.22C1144.36 3413.67 1143.44 3413.12 1142.49 3412.56C1140.22 3411.14 1138.1 3409.64 1135.99 3408C1137.02 3404.48 1138.26 3401.4 1140.11 3398.25C1142.16 3395.34 1142.16 3395.34 1141.99 3393C1141.19 3392.55 1140.39 3392.1 1139.56 3391.64C1132.57 3387.68 1125.69 3383.6 1118.87 3379.38C1113.99 3376.36 1109.16 3373.48 1103.99 3371C1098.03 3368.14 1092.51 3364.71 1086.9 3361.24C1082.05 3358.24 1077.16 3355.34 1072.18 3352.56C1071.53 3352.2 1070.88 3351.84 1070.21 3351.47C1068.85 3350.71 1067.5 3349.96 1066.14 3349.2C1062.18 3346.99 1058.24 3344.75 1054.3 3342.5C1053.45 3342.01 1052.59 3341.52 1051.71 3341.02C1046.28 3337.91 1040.87 3334.77 1035.48 3331.59C1034.84 3331.21 1034.19 3330.83 1033.53 3330.44C1030.33 3328.56 1027.13 3326.68 1023.94 3324.79C1018.05 3321.31 1012.17 3317.95 1005.99 3315V3313C1005.14 3312.75 1004.3 3312.5 1003.43 3312.25C1000.74 3311.27 998.664 3310.31 996.24 3308.88C993.327 3306.83 993.327 3306.83 990.99 3307C989.753 3308.74 988.599 3310.55 987.49 3312.38C984.169 3317.82 984.169 3317.82 981.99 3320C977.424 3319.68 973.558 3317.49 969.552 3315.44C968.853 3315.08 968.154 3314.73 967.433 3314.37C961.624 3311.4 955.977 3308.19 950.369 3304.86C947.08 3303.05 943.764 3301.55 940.326 3300.05C936.433 3298.3 932.69 3296.27 928.928 3294.25C922.902 3291.05 916.857 3287.9 910.74 3284.88C904.987 3282.03 899.312 3279.06 893.662 3276.01C886.519 3272.18 879.256 3268.59 871.99 3265C871 3264.5 871 3264.5 869.99 3264C870.023 3263.1 870.055 3262.2 870.089 3261.27C870.181 3257.89 870.22 3254.52 870.222 3251.14C870.234 3249.68 870.267 3248.23 870.323 3246.77C870.498 3241.93 870.409 3237.66 868.99 3233C865.421 3229.58 861.508 3227.89 856.99 3226C855.662 3225.21 854.35 3224.39 853.072 3223.52C847.625 3219.94 842.185 3216.46 836.447 3213.36C825.445 3207.26 814.812 3200.44 804.109 3193.84C791.903 3186.32 779.584 3178.99 767.24 3171.7C762.522 3168.91 757.817 3166.1 753.123 3163.27C750.104 3161.47 747.052 3159.73 743.99 3158V3156C743.116 3155.81 743.116 3155.81 742.224 3155.62C730.605 3152.39 719.129 3142.66 709.052 3136.19C705.247 3133.76 701.382 3131.52 697.416 3129.37C694.493 3127.72 691.652 3125.96 688.802 3124.19C684.31 3121.4 679.784 3118.72 675.178 3116.12C669.602 3112.98 664.168 3109.64 658.756 3106.22C652.099 3102.03 645.361 3097.98 638.615 3093.94C637.502 3093.27 636.389 3092.6 635.243 3091.91C630.189 3088.83 630.189 3088.83 624.99 3086V2162H562.99C561.865 2150.75 561.865 2150.75 561.801 2146.72C561.784 2145.81 561.767 2144.9 561.75 2143.96C561.729 2142.53 561.729 2142.53 561.709 2141.07C561.691 2140.05 561.673 2139.03 561.654 2137.98C561.616 2135.81 561.579 2133.65 561.544 2131.48C561.452 2125.81 561.347 2120.14 561.24 2114.48C561.219 2113.37 561.199 2112.26 561.177 2111.13C561.026 2103.25 560.804 2095.37 560.49 2087.5C560.083 2077.11 559.791 2066.71 559.552 2056.31L559.435 2051.24C559.369 2048.37 559.303 2045.51 559.237 2042.64C558.898 2027.95 558.546 2013.26 558.189 1998.57C558.079 1994.06 557.97 1989.54 557.863 1985.03C557.351 1962.19 557.351 1962.19 556.49 1939.35C555.983 1928.38 555.749 1917.4 555.517 1906.42C555.159 1889.42 554.758 1872.42 554.306 1855.43C554.276 1854.29 554.246 1853.16 554.215 1851.99C554.028 1844.97 553.84 1837.95 553.65 1830.93C553.551 1827.25 553.452 1823.57 553.354 1819.9C552.539 1789.54 551.688 1759.18 550.743 1728.82C550.224 1712.13 549.747 1695.44 549.365 1678.75C549.344 1677.86 549.324 1676.98 549.302 1676.07C549.195 1671.4 549.105 1666.74 549.033 1662.08C548.99 1660.02 548.917 1657.96 548.838 1655.9C548.804 1654.65 548.771 1653.4 548.736 1652.11C548.697 1651.04 548.657 1649.96 548.617 1648.85C549.193 1644.45 551.558 1642.36 554.877 1639.62C555.574 1639.09 556.271 1638.55 556.99 1638C558.007 1637.02 559.01 1636.02 559.99 1635L561.99 1633C551.68 1625.96 541.011 1619.46 530.365 1612.94C525.34 1609.85 520.371 1606.69 515.42 1603.49C510.41 1600.26 505.36 1597.09 500.299 1593.94C495.055 1590.67 489.833 1587.37 484.615 1584.06C477.625 1579.63 470.58 1575.3 463.501 1571.02C457.925 1567.62 452.477 1564.06 447.11 1560.35C442.907 1557.47 438.581 1555.21 433.99 1553V1551C433.295 1550.74 432.6 1550.48 431.885 1550.22C428.66 1548.86 425.708 1547.25 422.678 1545.5C421.075 1544.59 421.075 1544.59 419.439 1543.66C418.631 1543.11 417.823 1542.56 416.99 1542V1540C416.425 1539.89 415.86 1539.78 415.277 1539.67C412.648 1538.9 410.712 1537.76 408.392 1536.3C407.514 1535.76 406.636 1535.21 405.73 1534.65C404.343 1533.77 404.343 1533.77 402.928 1532.88C401.977 1532.28 401.027 1531.69 400.048 1531.07C397.359 1529.39 394.673 1527.7 391.99 1526C390.889 1525.31 389.788 1524.61 388.654 1523.9C384.912 1521.53 381.189 1519.13 377.47 1516.72C376.852 1516.32 376.234 1515.92 375.597 1515.51C374.404 1514.74 373.212 1513.97 372.021 1513.19C368.738 1511.07 365.399 1509.1 361.995 1507.17C358.585 1505.18 355.275 1503.02 351.948 1500.89C346.963 1497.7 341.944 1494.57 336.928 1491.44C335.411 1490.49 335.411 1490.49 333.863 1489.52C328.283 1486.03 322.678 1482.59 317.008 1479.25C314.99 1478 314.99 1478 312.428 1475.94C310.317 1474.26 308.411 1473.08 306.052 1471.81C302.1 1469.67 298.317 1467.33 294.552 1464.88C289.001 1461.27 283.394 1457.76 277.74 1454.31C276.968 1453.84 276.196 1453.37 275.4 1452.89C271.446 1450.48 267.477 1448.1 263.49 1445.75C260.19 1443.79 257.055 1441.67 253.928 1439.44C250.133 1436.73 246.275 1434.43 242.178 1432.23C239.231 1430.57 236.478 1428.69 233.685 1426.79C230.266 1424.52 226.788 1422.35 223.302 1420.19C218.07 1416.93 212.857 1413.65 207.678 1410.31C207.108 1409.95 206.539 1409.58 205.953 1409.2C203.226 1407.44 200.501 1405.68 197.779 1403.92C196.797 1403.29 195.815 1402.65 194.802 1402C193.513 1401.16 193.513 1401.16 192.197 1400.31C189.943 1398.87 189.943 1398.87 186.99 1398V1396C186.324 1395.76 185.657 1395.53 184.97 1395.29C181.195 1393.66 177.801 1391.59 174.302 1389.44C169.72 1386.59 169.72 1386.59 164.99 1384C166.438 1380.4 168.2 1378.85 171.428 1376.75C172.21 1376.23 172.992 1375.71 173.799 1375.17C175.99 1374 175.99 1374 178.99 1374V1372C180.834 1370.62 180.834 1370.62 183.49 1369C184.495 1368.38 185.501 1367.75 186.537 1367.11C187.092 1366.77 187.647 1366.43 188.219 1366.08C191.403 1364.14 194.572 1362.16 197.74 1360.19C198.426 1359.76 199.111 1359.33 199.818 1358.89C204.889 1355.72 209.879 1352.44 214.844 1349.11C220.776 1345.13 226.755 1341.22 232.74 1337.31C233.686 1336.69 234.633 1336.08 235.607 1335.44C241.212 1331.79 246.841 1328.18 252.497 1324.6C255.722 1322.53 258.875 1320.36 262.017 1318.16C264.019 1316.98 265.719 1316.44 267.99 1316V1314C269.563 1312.79 269.563 1312.79 271.752 1311.47C272.541 1310.99 273.331 1310.51 274.144 1310.01C274.98 1309.51 275.816 1309.01 276.678 1308.5C277.494 1308 278.311 1307.5 279.152 1306.99C283.029 1304.65 286.743 1302.61 290.99 1301V1299C292.417 1298.21 292.417 1298.21 293.873 1297.4C298.659 1294.66 303.254 1291.64 307.865 1288.62C309.135 1287.8 309.135 1287.8 310.431 1286.95C314.501 1284.3 318.559 1281.63 322.599 1278.93C326.83 1276.1 331.091 1273.32 335.365 1270.56C336.479 1269.84 336.479 1269.84 337.615 1269.11C341.54 1266.57 345.475 1264.05 349.428 1261.56C354.233 1258.52 358.954 1255.36 363.678 1252.19C370.239 1247.79 376.87 1243.53 383.585 1239.37C387.596 1236.88 391.551 1234.33 395.463 1231.69C399.074 1229.28 402.719 1226.92 406.365 1224.56C407.111 1224.08 407.857 1223.6 408.626 1223.1C412.61 1220.53 416.605 1217.97 420.615 1215.44C430.124 1209.4 439.51 1203.16 448.646 1196.57C451.029 1194.97 453.489 1193.58 455.987 1192.17C459.975 1189.84 463.815 1187.28 467.678 1184.75C468.566 1184.17 469.454 1183.59 470.37 1182.99C475.013 1179.96 479.639 1176.91 484.24 1173.81C489.293 1170.42 494.444 1167.21 499.616 1164.01C505.912 1160.09 512.077 1155.99 518.227 1151.85C518.95 1151.36 519.674 1150.87 520.42 1150.37C521.382 1149.72 521.382 1149.72 522.365 1149.06C523.99 1148 523.99 1148 525.99 1147C526.123 1139.43 526.253 1131.85 526.381 1124.28C526.441 1120.76 526.501 1117.24 526.563 1113.72C526.807 1099.82 527.027 1085.92 526.981 1072.01C526.957 1059.59 527.29 1047.17 527.563 1034.74C527.827 1022.53 528.023 1010.34 527.99 998.125C527.967 985.641 528.13 973.16 528.307 960.678C528.347 957.821 528.382 954.963 528.412 952.106C528.449 948.591 528.495 945.076 528.548 941.561C528.575 939.606 528.593 937.651 528.611 935.695C528.631 934.509 528.651 933.322 528.671 932.099C528.684 931.063 528.698 930.026 528.712 928.958C529.078 925.067 529.691 921.308 532.515 918.464C533.101 918.102 533.687 917.74 534.291 917.367C535.262 916.747 535.262 916.747 536.254 916.113C536.93 915.705 537.606 915.296 538.302 914.875C539.633 914.041 540.963 913.205 542.291 912.367C542.928 911.969 543.565 911.571 544.221 911.161C546.605 909.597 548.769 907.785 550.99 906C553.26 904.669 555.57 903.461 557.904 902.246C559.961 901.017 561.329 899.706 562.99 898C564.654 897.021 566.321 896.046 568.013 895.117C570.849 893.514 573.563 891.732 576.291 889.953C577.99 889 577.99 889 579.99 889V887C581.835 885.615 581.835 885.615 584.416 884.023C585.352 883.439 586.288 882.855 587.253 882.253C588.259 881.633 589.266 881.013 590.302 880.375C599.253 874.812 599.253 874.812 607.865 868.75C612.667 865.145 617.693 862.004 622.799 858.855C629.392 854.78 635.833 850.494 642.26 846.164C644.893 844.392 647.536 842.634 650.178 840.875C651.14 840.233 652.103 839.591 653.095 838.93C661.99 833 661.99 833 664.998 830.996C666.973 829.678 668.947 828.358 670.92 827.035C676.243 823.47 681.594 819.955 686.99 816.5C695.869 810.808 704.636 805.002 713.178 798.812C717.497 795.689 721.825 792.871 726.541 790.387C731.882 787.363 736.906 783.786 741.988 780.348C743.988 779.001 745.997 777.668 748.01 776.34C755.822 771.205 755.822 771.205 763.365 765.688C766.617 763.178 770.037 761.275 773.65 759.336C777.048 757.396 780.182 755.13 783.365 752.859C787.533 749.907 791.801 747.105 796.058 744.283C799.179 742.21 802.296 740.131 805.413 738.052C807.217 736.849 809.02 735.647 810.824 734.447C815.318 731.455 819.804 728.454 824.275 725.43C825.102 724.872 825.929 724.315 826.781 723.741C828.35 722.683 829.917 721.621 831.481 720.556C832.179 720.086 832.876 719.617 833.595 719.133C834.205 718.719 834.815 718.306 835.444 717.879C836.99 717 836.99 717 838.99 717V715C841.895 712.958 843.391 712 846.99 712V710C848.001 709.435 849.011 708.871 850.052 708.289C853.811 706.14 857.405 703.798 860.99 701.375C862.319 700.483 863.649 699.591 864.978 698.699C865.983 698.023 865.983 698.023 867.008 697.333C872.655 693.534 878.315 689.757 883.99 686C885.265 685.156 885.265 685.156 886.565 684.294C889.307 682.482 892.054 680.678 894.802 678.875C896.121 678.003 896.121 678.003 897.465 677.114C898.284 676.579 899.103 676.044 899.947 675.492C900.679 675.011 901.411 674.53 902.165 674.035C903.99 673 903.99 673 905.99 673V671C907.506 670.165 907.506 670.165 909.052 669.312C912.892 667.119 916.433 664.62 919.99 662C923.456 659.447 926.894 656.996 930.65 654.883C933.397 653.334 935.887 651.73 938.428 649.875C942.821 646.747 947.337 643.888 951.928 641.062C956.579 638.194 961.107 635.272 965.49 632C970.427 628.319 975.568 625.082 980.804 621.852C987.347 617.807 993.739 613.555 1000.12 609.259C1003.3 607.121 1006.49 604.999 1009.68 602.875C1010.93 602.039 1012.19 601.203 1013.44 600.367C1022.99 594 1022.99 594 1025.93 592.043C1028.07 590.61 1030.22 589.176 1032.37 587.738C1040.39 582.367 1048.46 577.084 1056.56 571.833C1061.79 568.441 1067 565.023 1072.18 561.562C1072.78 561.159 1073.39 560.755 1074.01 560.338C1076.63 558.588 1079.24 556.828 1081.84 555.051C1082.65 554.498 1083.47 553.945 1084.3 553.375C1084.98 552.908 1085.66 552.442 1086.35 551.961C1087.99 551 1087.99 551 1089.99 551V549C1091 548.436 1092 547.871 1093.04 547.29C1096.84 545.119 1100.5 542.777 1104.15 540.367C1105.14 539.712 1105.14 539.712 1106.16 539.044C1108.27 537.656 1110.38 536.266 1112.49 534.875C1113.87 533.966 1115.26 533.057 1116.64 532.148C1125.18 526.53 1133.7 520.873 1142.2 515.193C1145.08 513.273 1147.96 511.355 1150.83 509.437C1152.47 508.345 1152.47 508.345 1154.15 507.23C1156.45 505.693 1158.76 504.156 1161.06 502.62C1168.16 497.888 1168.16 497.888 1175.26 493.145C1183.63 487.536 1192.07 482.019 1200.52 476.527C1207.38 472.068 1214.19 467.547 1220.99 463C1255.05 440.234 1255.05 440.234 1265.53 433.521C1268.8 431.427 1272.04 429.301 1275.26 427.129C1275.96 426.657 1276.66 426.185 1277.38 425.698C1278.71 424.801 1280.03 423.899 1281.35 422.993C1285.77 420 1285.77 420 1287.99 420V418C1294.74 414 1294.74 414 1296.99 414V412C1299.15 410.579 1299.15 410.579 1302.17 408.918C1308.44 405.362 1314.43 401.492 1320.41 397.462C1322.16 396.284 1323.91 395.112 1325.66 393.94C1331 390.359 1336.34 386.763 1341.67 383.16C1342.51 382.598 1343.34 382.037 1344.2 381.458C1345.73 380.427 1347.26 379.392 1348.79 378.353C1353.77 375 1353.77 375 1355.99 375V373C1357.65 371.844 1357.65 371.844 1360.05 370.5C1364.31 368.045 1368.42 365.426 1372.5 362.68C1378.8 358.458 1385.11 354.271 1391.45 350.102C1392.37 349.495 1393.29 348.888 1394.24 348.263C1398.04 345.757 1401.85 343.251 1405.66 340.746C1419.6 331.57 1433.51 322.347 1447.38 313.064C1457.41 306.35 1467.5 299.726 1477.6 293.117C1486.76 287.123 1495.9 281.095 1504.99 275C1508.12 272.912 1511.25 270.827 1514.38 268.741C1517.44 266.699 1520.51 264.655 1523.56 262.605C1530.55 257.931 1537.56 253.318 1544.61 248.75C1554.28 242.488 1563.87 236.113 1573.44 229.708C1576.05 227.957 1578.68 226.208 1581.3 224.461C1585.96 221.353 1590.62 218.241 1595.28 215.129C1598.93 212.691 1602.58 210.254 1606.24 207.818C1608.12 206.563 1610 205.307 1611.88 204.051C1630.45 191.642 1630.45 191.642 1638.88 186.333C1641.78 184.499 1644.64 182.6 1647.49 180.687C1648.76 179.836 1650.04 178.984 1651.31 178.133C1652.03 177.651 1652.75 177.169 1653.49 176.673C1658.78 173.132 1664.07 169.596 1669.37 166.062C1670.25 165.472 1670.25 165.472 1671.15 164.869C1678.75 159.802 1686.37 154.78 1694.05 149.842C1702.75 144.243 1711.33 138.467 1719.92 132.708C1724.27 129.794 1728.62 126.89 1732.99 124C1733.84 123.44 1734.68 122.88 1735.55 122.303C1738.3 120.488 1741.05 118.681 1743.8 116.875C1744.68 116.294 1745.56 115.712 1746.47 115.113C1747.28 114.578 1748.1 114.043 1748.95 113.492C1750.04 112.771 1750.04 112.771 1751.17 112.035C1752.99 111 1752.99 111 1754.99 111V109C1757.25 107.453 1759.51 106.027 1761.87 104.625C1767.73 101.066 1773.49 97.3912 1779.17 93.5634C1786.05 88.9602 1792.94 84.386 1799.85 79.8364C1800.77 79.2264 1801.7 78.6164 1802.65 77.9879C1805.49 76.1167 1808.34 74.246 1811.18 72.3755C1823.47 64.2838 1835.76 56.1805 1847.99 48.0005C1849.43 47.0393 1850.87 46.0783 1852.31 45.1177C1852.88 44.7396 1853.45 44.3616 1854.03 43.9722C1855.2 43.1939 1856.37 42.4159 1857.54 41.6382C1860.44 39.7007 1863.35 37.7583 1866.25 35.8052C1867.26 35.1271 1868.26 34.4491 1869.3 33.7505C1870.16 33.1678 1871.03 32.5852 1871.92 31.9848C1872.93 31.33 1873.94 30.6752 1874.99 30.0005C1875.65 29.5279 1876.32 29.0553 1877 28.5683C1883.9 23.9535 1891.02 22.1663 1899.03 20.5571C1901.19 20.1233 1903.34 19.6619 1905.49 19.1958C1916.84 16.7993 1925.83 17.0961 1937.1 19.606Z" fill="#3D4376"/>
<path d="M1937.1 19.606C1939.15 20.0565 1941.2 20.4767 1943.26 20.8963C1955.68 23.5651 1964.98 29.3757 1975.09 36.9063C1978.78 39.5676 1982.59 42.0087 1986.42 44.4406C1990.63 47.115 1994.8 49.8534 1998.94 52.6329C2006.93 57.9709 2014.96 63.2399 2022.99 68.4999C2031.55 74.1021 2040.09 79.7229 2048.6 85.4049C2054.47 89.3288 2060.38 93.2038 2066.3 97.0629C2067.32 97.7248 2068.33 98.3867 2069.37 99.0687C2070.82 100.011 2070.82 100.011 2072.29 100.973C2073.15 101.532 2074.01 102.092 2074.89 102.668C2076.93 104.014 2076.93 104.014 2078.99 105V107C2080.07 107.398 2080.07 107.398 2081.18 107.805C2084.02 109.013 2086.41 110.428 2088.98 112.125C2089.93 112.744 2090.87 113.363 2091.85 114.001C2092.84 114.661 2093.84 115.32 2094.87 116C2095.9 116.677 2096.93 117.354 2097.99 118.051C2100.99 120.029 2103.99 122.013 2106.99 124C2107.75 124.502 2108.51 125.004 2109.29 125.522C2112.92 127.928 2116.54 130.346 2120.15 132.769C2132.56 141.076 2145.02 149.297 2157.49 157.5C2170.89 166.31 2184.26 175.155 2197.58 184.074C2206.9 190.307 2216.26 196.45 2225.66 202.562C2232.23 206.846 2238.79 211.167 2245.31 215.536C2248.74 217.831 2252.17 220.12 2255.6 222.406C2260.93 225.957 2266.25 229.511 2271.58 233.068C2275.21 235.49 2278.83 237.911 2282.46 240.333C2284.32 241.574 2286.18 242.816 2288.04 244.058C2301.35 252.964 2301.35 252.964 2314.82 261.628C2318 263.636 2321.12 265.717 2324.24 267.812C2324.87 268.233 2325.5 268.653 2326.15 269.086C2328.72 270.805 2331.28 272.526 2333.85 274.247C2341.03 279.056 2348.23 283.819 2355.49 288.5C2362.76 293.185 2369.97 297.953 2377.15 302.766C2380.26 304.849 2383.38 306.924 2386.49 309C2387.74 309.833 2388.99 310.667 2390.24 311.5C2390.86 311.912 2391.48 312.325 2392.12 312.75C2397.74 316.5 2397.74 316.5 2399.62 317.75L2403.37 320.252C2406.47 322.32 2409.57 324.389 2412.67 326.465C2419.12 330.781 2425.59 335.049 2432.12 339.25C2441.37 345.214 2450.53 351.33 2459.68 357.455C2461.66 358.781 2463.65 360.103 2465.64 361.422C2471.01 364.981 2476.31 368.6 2481.54 372.359C2484.01 374.015 2486.57 375.453 2489.16 376.911C2492.86 379.113 2496.28 381.736 2499.74 384.289C2503.11 386.739 2506.5 388.908 2510.15 390.936C2513.71 392.993 2517.09 395.329 2520.49 397.625C2522.09 398.695 2523.68 399.766 2525.28 400.836C2526.47 401.634 2526.47 401.634 2527.68 402.448C2531.07 404.724 2534.47 406.987 2537.87 409.25L2541.53 411.695C2542.11 412.082 2542.7 412.469 2543.29 412.868C2551.18 418.125 2551.18 418.125 2553.94 419.966C2555.83 421.224 2557.71 422.482 2559.6 423.739C2564.71 427.142 2569.81 430.547 2574.91 433.956C2577.74 435.844 2580.56 437.731 2583.39 439.618C2584.83 440.582 2586.28 441.547 2587.72 442.512C2595.32 447.594 2602.94 452.644 2610.67 457.527C2613.89 459.572 2617.07 461.684 2620.24 463.812C2620.87 464.233 2621.5 464.653 2622.15 465.086C2624.72 466.805 2627.28 468.526 2629.85 470.247C2637.74 475.531 2645.66 480.744 2653.64 485.888C2661.98 491.269 2670.22 496.787 2678.45 502.332C2679.52 503.047 2680.58 503.763 2681.68 504.5C2682.61 505.129 2683.54 505.758 2684.5 506.406C2686.62 507.764 2688.71 508.933 2690.99 510V512C2691.56 512.102 2692.13 512.204 2692.71 512.309C2695.43 513.133 2697.2 514.384 2699.49 516.062C2707.04 521.48 2714.76 526.609 2722.62 531.562C2726.04 533.726 2729.38 535.958 2732.68 538.312C2737.01 541.388 2741.47 544.207 2745.99 547C2751.25 550.253 2756.39 553.598 2761.42 557.188C2771.91 564.581 2782.76 571.466 2793.51 578.464C2800.74 583.174 2807.93 587.932 2815.1 592.736C2818.73 595.163 2822.36 597.581 2825.99 600C2827.52 601.018 2829.05 602.036 2830.57 603.055C2831.32 603.549 2832.06 604.044 2832.82 604.554C2838.94 608.633 2838.94 608.633 2840.83 609.892C2842.05 610.708 2843.28 611.523 2844.5 612.338C2847.68 614.453 2850.85 616.574 2854.01 618.703C2855.01 619.374 2855.01 619.374 2856.03 620.058C2857.29 620.904 2858.55 621.752 2859.81 622.602C2863.77 625.261 2867.82 627.671 2871.99 630V632C2872.69 632.268 2873.39 632.536 2874.12 632.812C2877.16 634.068 2880.06 635.502 2882.99 637V639C2883.7 639.254 2884.41 639.508 2885.14 639.77C2888.26 641.118 2890.86 642.773 2893.68 644.688C2894.73 645.396 2895.77 646.105 2896.85 646.836C2900.5 649.35 2904.13 651.887 2907.74 654.457C2911.35 656.927 2915.05 659.103 2918.99 661V663C2919.71 663.263 2920.43 663.527 2921.17 663.798C2924.07 665.035 2926.52 666.499 2929.16 668.23C2930.14 668.869 2931.11 669.508 2932.12 670.166C2933.13 670.833 2934.14 671.5 2935.18 672.188C2936.17 672.835 2937.16 673.483 2938.18 674.15C2942.85 677.216 2947.48 680.324 2952.04 683.551C2956.31 686.562 2960.68 689.384 2965.1 692.169C2970.35 695.493 2975.54 698.909 2980.74 702.312C2981.59 702.871 2981.59 702.871 2982.46 703.44C2990.76 708.871 2999.04 714.331 3007.28 719.854C3010.41 721.95 3013.54 724.037 3016.68 726.125C3017.92 726.953 3019.16 727.781 3020.41 728.609C3021 729.008 3021.6 729.407 3022.22 729.818C3035.99 739 3035.99 739 3038.97 740.996C3041.88 742.924 3044.8 744.815 3047.74 746.688C3048.68 747.289 3049.63 747.891 3050.6 748.512C3052.89 749.987 3052.89 749.987 3054.99 751V753H3057.99V755C3058.72 755.268 3059.44 755.536 3060.19 755.812C3062.97 756.993 3065.33 758.355 3067.87 760C3068.83 760.623 3069.79 761.245 3070.78 761.887C3078.23 766.789 3085.64 771.745 3093.04 776.723C3093.7 777.167 3094.36 777.611 3095.04 778.069C3096.3 778.911 3097.55 779.755 3098.8 780.601C3102.77 783.26 3106.82 785.671 3110.99 788V790C3112.05 790.382 3112.05 790.382 3113.13 790.771C3116.28 792.124 3118.95 793.783 3121.82 795.668C3122.36 796.026 3122.91 796.384 3123.47 796.753C3124.62 797.509 3125.78 798.268 3126.93 799.03C3128.65 800.171 3130.38 801.306 3132.11 802.439C3138.02 806.315 3143.85 810.278 3149.62 814.349C3153.64 817.143 3157.75 819.787 3161.87 822.438C3163.63 823.582 3165.4 824.726 3167.17 825.871C3168 826.414 3168.84 826.956 3169.7 827.515C3176.1 831.665 3182.42 835.913 3188.69 840.234C3189.54 840.813 3190.38 841.392 3191.24 841.988C3192.91 843.134 3194.57 844.282 3196.23 845.434C3200.72 848.523 3205.23 851.362 3209.99 854C3211.48 854.863 3212.96 855.736 3214.43 856.625C3215.11 857.03 3215.79 857.435 3216.49 857.852C3216.98 858.231 3217.48 858.61 3217.99 859V861C3218.87 861.254 3219.76 861.508 3220.67 861.77C3224.06 863.027 3226.32 864.487 3229.18 866.688C3233.73 870.103 3238.38 873.216 3243.2 876.238C3248.2 879.393 3253.08 882.71 3257.99 886C3260.76 887.856 3263.53 889.71 3266.3 891.562C3267.05 892.062 3267.8 892.561 3268.57 893.076C3272.98 896.021 3277.42 898.935 3281.87 901.824C3283.38 902.802 3283.38 902.802 3284.92 903.801C3286.86 905.061 3288.81 906.318 3290.76 907.573C3293.52 909.36 3296.26 911.177 3298.99 913C3300.01 913.655 3301.04 914.311 3302.09 914.986C3303.59 915.991 3303.59 915.991 3305.12 917.016C3306.03 917.611 3306.94 918.207 3307.88 918.821C3312.32 923.4 3311.1 930.811 3311.02 936.855C3310.97 944.654 3311.04 952.442 3311.21 960.238C3311.23 961.291 3311.25 962.344 3311.28 963.429C3311.32 965.605 3311.37 967.781 3311.42 969.958C3311.75 985.369 3312.08 1000.77 3311.99 1016.19C3311.95 1023.91 3311.98 1031.63 3312.21 1039.35C3312.24 1040.47 3312.24 1040.47 3312.28 1041.61C3312.3 1042.37 3312.32 1043.14 3312.35 1043.93C3313 1065.61 3313.14 1087.3 3313.17 1108.99C3313.18 1111.55 3313.19 1114.12 3313.2 1116.68C3313.22 1120.77 3313.22 1124.86 3313.22 1128.94C3313.22 1130.47 3313.23 1131.99 3313.23 1133.51C3313.3 1148.64 3313.3 1148.64 3310.99 1155C3308.35 1157.38 3308.35 1157.38 3305.18 1159.12C3304.14 1159.73 3303.1 1160.33 3302.03 1160.95C3298.99 1162 3298.99 1162 3296.78 1161.37C3293.11 1159.57 3289.77 1157.39 3286.37 1155.12C3285.64 1154.64 3284.91 1154.16 3284.15 1153.66C3281.8 1152.11 3279.46 1150.56 3277.12 1149C3275.58 1147.99 3274.04 1146.97 3272.51 1145.96C3262.98 1139.67 3253.48 1133.34 3243.99 1127C3241.93 1125.62 3239.87 1124.25 3237.8 1122.88C3225.99 1115 3225.99 1115 3223.15 1113.11C3221.17 1111.79 3219.19 1110.46 3217.2 1109.14C3212.12 1105.75 3207.04 1102.36 3201.96 1098.96C3200.46 1097.97 3200.46 1097.97 3198.94 1096.95C3196.93 1095.61 3194.92 1094.26 3192.9 1092.91C3187.11 1089.04 3181.27 1085.24 3175.38 1081.52C3172.64 1079.78 3169.93 1078 3167.24 1076.19C3166.23 1075.51 3165.22 1074.84 3164.18 1074.14C3163.13 1073.43 3162.08 1072.73 3160.99 1072C3152.57 1066.35 3144.12 1060.77 3135.62 1055.25C3128.63 1050.71 3121.67 1046.13 3114.74 1041.5C3114.02 1041.02 3113.3 1040.54 3112.57 1040.05C3109.03 1037.68 3105.5 1035.31 3101.96 1032.94C3094.66 1028.04 3087.29 1023.28 3079.82 1018.65C3073.27 1014.58 3066.88 1010.31 3060.49 1006C3052.59 1000.7 3044.67 995.466 3036.57 990.482C3030.88 986.969 3025.33 983.261 3019.78 979.534C3014.65 976.097 3009.49 972.716 3004.3 969.375C2998.38 965.562 2992.5 961.69 2986.65 957.769C2981.96 954.632 2977.23 951.557 2972.49 948.5C2967.13 945.044 2961.79 941.552 2956.49 938C2950.65 934.09 2944.77 930.253 2938.87 926.444C2929.94 920.68 2921.04 914.868 2912.14 909.056C2909.42 907.279 2906.69 905.502 2903.97 903.725C2893.54 896.919 2883.12 890.111 2872.77 883.18C2868.55 880.356 2864.28 877.613 2859.98 874.898C2850.81 869.08 2841.7 863.169 2832.68 857.125C2824.42 851.593 2816.08 846.191 2807.74 840.781C2784.3 825.574 2784.3 825.574 2774.49 819C2767.52 814.328 2760.49 809.745 2753.45 805.165C2746.02 800.325 2738.6 795.468 2731.18 790.604C2722.33 784.805 2713.49 779.01 2704.62 773.25C2703.83 772.738 2703.04 772.227 2702.23 771.699C2698.94 769.561 2695.64 767.423 2692.35 765.286C2680.34 757.492 2668.4 749.614 2656.51 741.651C2648.55 736.33 2640.54 731.126 2632.43 726.052C2627.13 722.738 2621.92 719.325 2616.74 715.842C2611.75 712.493 2606.72 709.207 2601.68 705.938C2593.9 700.891 2586.13 695.827 2578.37 690.75C2577.27 690.035 2576.18 689.321 2575.05 688.584C2572.82 687.122 2570.59 685.66 2568.35 684.198C2547.64 670.649 2526.93 657.104 2506.18 643.625C2495.28 636.542 2484.39 629.427 2473.51 622.306C2471.11 620.73 2468.7 619.155 2466.29 617.581C2462.52 615.117 2458.76 612.653 2454.99 610.188C2454.37 609.784 2453.76 609.38 2453.12 608.964C2445.84 604.2 2438.59 599.409 2431.37 594.562C2425.47 590.606 2419.51 586.773 2413.49 583C2406.81 578.807 2400.2 574.515 2393.65 570.117C2386.03 565.007 2378.35 559.97 2370.68 554.938C2369.65 554.26 2369.65 554.26 2368.59 553.569C2363.73 550.378 2358.86 547.189 2353.99 544C2352.74 543.177 2351.48 542.354 2350.22 541.532C2345.46 538.411 2340.7 535.29 2335.93 532.17C2327.57 526.691 2319.21 521.206 2310.85 515.718C2299.46 508.239 2288.06 500.767 2276.65 493.314C2271.03 489.645 2265.42 485.969 2259.81 482.285C2248.24 474.688 2236.66 467.123 2224.99 459.687C2213.89 452.609 2202.92 445.34 2191.99 438C2172.83 425.127 2172.83 425.127 2153.39 412.672C2143.05 406.193 2132.89 399.449 2122.69 392.747C2118.34 389.887 2113.99 387.035 2109.63 384.187C2097.03 375.951 2084.47 367.661 2071.96 359.285C2064.9 354.56 2057.8 349.929 2050.56 345.476C2044.94 342.002 2039.45 338.338 2033.96 334.655C2027.75 330.496 2021.5 326.415 2015.24 322.355C2010.09 319.021 2004.96 315.671 1999.84 312.305C1977.06 297.034 1977.06 297.034 1953.29 283.403C1943.36 278.199 1933.85 272.185 1924.27 266.363C1922.07 265.007 1922.07 265.007 1919.99 264C1917.33 265.236 1917.33 265.236 1914.24 267.125C1913.34 267.655 1913.34 267.655 1912.41 268.196C1910.27 269.455 1908.13 270.727 1905.99 272C1903.31 273.587 1900.63 275.173 1897.95 276.758C1896.05 277.885 1894.15 279.013 1892.25 280.142C1886.73 283.413 1881.17 286.592 1875.55 289.687C1869.16 293.234 1863.09 297.151 1857.04 301.262C1852.38 304.429 1847.66 307.496 1842.93 310.562C1842.07 311.118 1841.22 311.674 1840.33 312.246C1835.46 315.409 1830.57 318.554 1825.68 321.687C1820.49 325.013 1815.35 328.416 1810.23 331.848C1803.35 336.445 1796.42 340.944 1789.49 345.454C1782.8 349.806 1776.15 354.202 1769.54 358.656C1766.67 360.567 1763.77 362.417 1760.87 364.262C1754.62 368.224 1748.43 372.262 1742.24 376.312C1741.67 376.685 1741.1 377.057 1740.52 377.44C1733.94 381.739 1727.38 386.056 1720.87 390.437C1716.22 393.561 1711.51 396.561 1706.74 399.5C1699.49 403.983 1692.39 408.693 1685.3 413.437C1675.52 419.986 1665.71 426.491 1655.87 432.937C1655.25 433.34 1654.64 433.743 1654 434.158C1646.23 439.246 1638.44 444.311 1630.63 449.344C1625.52 452.639 1620.46 455.996 1615.42 459.391C1610.99 462.368 1606.49 465.231 1601.98 468.09C1596.71 471.455 1591.48 474.885 1586.24 478.312C1585.67 478.684 1585.11 479.055 1584.52 479.437C1577.25 484.194 1570 488.977 1562.78 493.816C1558.51 496.669 1554.19 499.426 1549.85 502.164C1546.43 504.358 1543.05 506.613 1539.68 508.875C1535.06 511.967 1530.43 515.016 1525.74 518C1519.29 522.109 1512.94 526.366 1506.58 530.622C1497.28 536.85 1487.94 542.999 1478.45 548.934C1472.94 552.38 1467.52 555.94 1462.13 559.564C1458.61 561.926 1455.07 564.24 1451.49 566.5C1447.43 569.066 1443.42 571.7 1439.43 574.375C1432.36 579.112 1425.24 583.781 1418.12 588.438C1417.54 588.811 1416.97 589.184 1416.38 589.569C1410.53 593.395 1404.67 597.211 1398.79 600.991C1392.55 605.004 1386.35 609.086 1380.18 613.211C1379.47 613.687 1378.75 614.162 1378.02 614.652C1374.43 617.051 1370.85 619.452 1367.27 621.858C1359.1 627.331 1350.85 632.643 1342.49 637.812C1338.32 640.401 1334.24 643.135 1330.17 645.879C1326.37 648.417 1322.52 650.898 1318.68 653.375C1313.35 656.807 1308.06 660.277 1302.8 663.812C1296.79 667.855 1290.68 671.751 1284.55 675.625C1275.63 681.272 1266.82 687.075 1258.04 692.954C1250.08 698.289 1242.06 703.539 1234.02 708.764C1228.64 712.268 1223.27 715.797 1217.93 719.375C1212.27 723.164 1206.57 726.87 1200.83 730.539C1188.2 738.625 1175.65 746.824 1163.12 755.062C1162.37 755.554 1161.62 756.045 1160.85 756.552C1150.07 763.634 1139.33 770.771 1128.61 777.948C1121.88 782.452 1115.11 786.862 1108.21 791.095C1100.34 795.958 1092.68 801.161 1085.01 806.318C1078.84 810.456 1072.64 814.534 1066.38 818.538C1060.02 822.611 1053.71 826.759 1047.4 830.91C1043.89 833.223 1040.37 835.533 1036.85 837.844C1036.16 838.296 1035.47 838.748 1034.76 839.214C1029.39 842.741 1024.01 846.252 1018.62 849.75C1010.96 854.717 1003.32 859.696 995.678 864.688C994.838 865.237 994.838 865.237 993.981 865.797C986.435 870.729 978.91 875.691 971.432 880.727C968.659 882.576 965.85 884.365 963.034 886.148C956.577 890.245 950.188 894.443 943.8 898.646C940.261 900.974 936.719 903.299 933.178 905.625C932.475 906.087 931.771 906.549 931.047 907.025C918.925 914.986 906.771 922.896 894.61 930.796C870.313 946.561 870.313 946.561 846.166 962.556C841.245 965.846 836.278 969.061 831.302 972.268C823.43 977.349 815.598 982.492 807.763 987.631C800.144 992.629 792.516 997.612 784.866 1002.56C776.345 1008.08 767.911 1013.72 759.477 1019.37C752.106 1024.3 744.697 1029.15 737.148 1033.8C732.413 1036.72 727.784 1039.77 723.171 1042.88C719.365 1045.42 715.524 1047.9 711.678 1050.38C704.374 1055.09 697.13 1059.88 689.907 1064.72C676.092 1073.97 662.211 1083.11 648.324 1092.25C636.541 1100.01 624.776 1107.79 613.047 1115.63C609.79 1117.8 606.531 1119.97 603.272 1122.14C597.837 1125.77 592.405 1129.39 586.976 1133.03C583.851 1135.11 580.724 1137.2 577.592 1139.28L573.647 1141.89C573.002 1142.32 572.356 1142.75 571.691 1143.19C568.036 1145.62 564.403 1148.08 560.789 1150.57C558.199 1152.35 555.593 1154.11 552.991 1155.88C552.061 1156.53 551.131 1157.18 550.173 1157.86C543.827 1162.12 543.827 1162.12 539.608 1161.52C538.744 1161.02 537.881 1160.52 536.991 1160C536.292 1159.65 535.594 1159.29 534.874 1158.93C533.246 1157.95 531.619 1156.98 529.991 1156V1154H527.991C527.192 1149.08 526.865 1144.41 526.862 1139.41C526.86 1138.68 526.858 1137.96 526.856 1137.21C526.852 1134.8 526.855 1132.39 526.858 1129.99C526.857 1128.28 526.856 1126.57 526.854 1124.86C526.851 1120.29 526.856 1115.72 526.862 1111.15C526.866 1108.31 526.868 1105.48 526.869 1102.64C526.88 1077.86 527.025 1053.08 527.635 1028.3C527.881 1018.3 528.017 1008.32 527.991 998.317C527.968 985.77 528.13 973.224 528.308 960.678C528.348 957.821 528.383 954.963 528.413 952.106C528.45 948.591 528.496 945.076 528.549 941.561C528.576 939.606 528.594 937.651 528.612 935.695C528.642 933.915 528.642 933.915 528.672 932.099C528.685 931.063 528.699 930.026 528.712 928.958C529.079 925.067 529.692 921.308 532.516 918.464C533.102 918.102 533.688 917.74 534.292 917.367C535.263 916.747 535.263 916.747 536.255 916.113C536.931 915.705 537.607 915.296 538.303 914.875C539.634 914.041 540.964 913.205 542.292 912.367C542.929 911.969 543.566 911.571 544.222 911.161C546.605 909.597 548.77 907.785 550.991 906C553.261 904.669 555.571 903.461 557.905 902.246C559.962 901.017 561.33 899.706 562.991 898C564.655 897.021 566.322 896.046 568.014 895.117C570.85 893.514 573.564 891.732 576.292 889.953C577.991 889 577.991 889 579.991 889V887C581.836 885.615 581.836 885.615 584.417 884.023C585.353 883.439 586.289 882.855 587.254 882.253C588.26 881.633 589.267 881.013 590.303 880.375C599.254 874.812 599.254 874.812 607.866 868.75C612.668 865.145 617.694 862.004 622.8 858.855C629.393 854.78 635.833 850.494 642.261 846.164C644.894 844.392 647.537 842.634 650.178 840.875C651.623 839.912 651.623 839.912 653.096 838.93C661.991 833 661.991 833 664.999 830.996C666.974 829.678 668.948 828.358 670.921 827.035C676.244 823.47 681.595 819.955 686.991 816.5C695.87 810.808 704.637 805.002 713.178 798.812C717.498 795.689 721.826 792.871 726.542 790.387C731.883 787.363 736.907 783.786 741.988 780.348C743.989 779.001 745.998 777.668 748.01 776.34C755.823 771.205 755.823 771.205 763.366 765.688C766.618 763.178 770.038 761.275 773.651 759.336C777.049 757.396 780.183 755.13 783.366 752.859C787.534 749.907 791.802 747.105 796.059 744.283C799.18 742.21 802.297 740.131 805.414 738.052C807.217 736.849 809.021 735.647 810.825 734.447C815.319 731.455 819.805 728.454 824.276 725.43C825.103 724.872 825.93 724.315 826.781 723.741C828.351 722.683 829.918 721.621 831.482 720.556C832.18 720.086 832.877 719.617 833.596 719.133C834.206 718.719 834.816 718.306 835.445 717.879C836.991 717 836.991 717 838.991 717V715C841.896 712.958 843.392 712 846.991 712V710C848.002 709.435 849.012 708.871 850.053 708.289C853.812 706.14 857.406 703.798 860.991 701.375C862.32 700.483 863.65 699.591 864.979 698.699C865.649 698.249 866.319 697.798 867.009 697.333C872.655 693.534 878.316 689.757 883.991 686C884.841 685.437 885.691 684.874 886.566 684.294C889.308 682.482 892.055 680.678 894.803 678.875C896.122 678.003 896.122 678.003 897.466 677.114C898.695 676.311 898.695 676.311 899.948 675.492C900.68 675.011 901.412 674.53 902.166 674.035C903.991 673 903.991 673 905.991 673V671C907.507 670.165 907.507 670.165 909.053 669.312C912.893 667.119 916.434 664.62 919.991 662C923.457 659.447 926.895 656.996 930.651 654.883C933.398 653.334 935.888 651.73 938.428 649.875C942.822 646.747 947.338 643.888 951.928 641.062C956.58 638.194 961.108 635.272 965.491 632C970.428 628.319 975.569 625.082 980.805 621.852C987.348 617.807 993.739 613.555 1000.12 609.259C1003.3 607.121 1006.49 604.999 1009.68 602.875C1010.93 602.039 1012.19 601.203 1013.44 600.367C1022.99 594 1022.99 594 1025.93 592.043C1028.08 590.61 1030.22 589.176 1032.37 587.738C1040.39 582.367 1048.46 577.084 1056.56 571.833C1061.79 568.441 1067 565.023 1072.18 561.562C1072.78 561.159 1073.39 560.755 1074.01 560.338C1076.63 558.588 1079.24 556.828 1081.84 555.051C1082.65 554.498 1083.47 553.945 1084.3 553.375C1084.98 552.908 1085.66 552.442 1086.35 551.961C1087.99 551 1087.99 551 1089.99 551V549C1091 548.436 1092.01 547.871 1093.04 547.29C1096.84 545.119 1100.5 542.777 1104.15 540.367C1105.14 539.712 1105.14 539.712 1106.16 539.044C1108.27 537.656 1110.38 536.266 1112.49 534.875C1113.87 533.966 1115.26 533.057 1116.64 532.148C1125.18 526.53 1133.7 520.873 1142.2 515.193C1145.08 513.273 1147.96 511.355 1150.83 509.437C1152.47 508.345 1152.47 508.345 1154.15 507.23C1156.45 505.693 1158.76 504.156 1161.06 502.62C1168.16 497.888 1168.16 497.888 1175.26 493.145C1183.63 487.536 1192.07 482.019 1200.52 476.527C1207.38 472.068 1214.19 467.547 1220.99 463C1255.05 440.234 1255.05 440.234 1265.53 433.521C1268.8 431.427 1272.04 429.301 1275.26 427.129C1275.96 426.657 1276.66 426.185 1277.38 425.698C1278.71 424.801 1280.03 423.899 1281.35 422.993C1285.77 420 1285.77 420 1287.99 420V418C1294.74 414 1294.74 414 1296.99 414V412C1299.15 410.579 1299.15 410.579 1302.17 408.918C1308.44 405.362 1314.43 401.492 1320.41 397.462C1322.16 396.284 1323.91 395.112 1325.66 393.94C1331.01 390.359 1336.34 386.763 1341.67 383.16C1342.51 382.598 1343.34 382.037 1344.2 381.458C1345.73 380.427 1347.26 379.392 1348.79 378.353C1353.77 375 1353.77 375 1355.99 375V373C1357.65 371.844 1357.65 371.844 1360.05 370.5C1364.31 368.045 1368.43 365.426 1372.5 362.68C1378.8 358.458 1385.12 354.271 1391.45 350.102C1392.37 349.495 1393.29 348.888 1394.24 348.263C1398.05 345.757 1401.85 343.251 1405.66 340.746C1419.6 331.57 1433.51 322.347 1447.38 313.064C1457.41 306.35 1467.5 299.726 1477.6 293.117C1486.76 287.123 1495.9 281.095 1504.99 275C1508.12 272.912 1511.25 270.827 1514.38 268.741C1517.44 266.699 1520.51 264.655 1523.57 262.605C1530.55 257.931 1537.56 253.318 1544.62 248.75C1554.28 242.488 1563.87 236.113 1573.44 229.708C1576.06 227.957 1578.68 226.208 1581.3 224.461C1585.96 221.353 1590.62 218.241 1595.29 215.129C1598.94 212.691 1602.59 210.254 1606.24 207.818C1608.12 206.563 1610 205.307 1611.88 204.051C1630.45 191.642 1630.45 191.642 1638.88 186.333C1641.78 184.499 1644.64 182.6 1647.49 180.687C1648.76 179.836 1650.04 178.984 1651.31 178.133C1652.03 177.651 1652.75 177.169 1653.49 176.673C1658.78 173.132 1664.07 169.596 1669.37 166.062C1670.25 165.472 1670.25 165.472 1671.15 164.869C1678.75 159.802 1686.37 154.78 1694.05 149.842C1702.75 144.243 1711.33 138.467 1719.92 132.708C1724.27 129.794 1728.63 126.89 1732.99 124C1733.84 123.44 1734.68 122.88 1735.55 122.303C1738.3 120.488 1741.05 118.681 1743.8 116.875C1744.68 116.294 1745.56 115.712 1746.47 115.113C1747.29 114.578 1748.1 114.043 1748.95 113.492C1750.05 112.771 1750.05 112.771 1751.17 112.035C1752.99 111 1752.99 111 1754.99 111V109C1757.25 107.453 1759.51 106.027 1761.87 104.625C1767.73 101.066 1773.49 97.3912 1779.17 93.5634C1786.05 88.9602 1792.94 84.386 1799.85 79.8364C1800.77 79.2264 1801.7 78.6164 1802.65 77.9879C1805.49 76.1167 1808.34 74.246 1811.18 72.3755C1823.47 64.2838 1835.76 56.1805 1847.99 48.0005C1849.43 47.0393 1850.87 46.0783 1852.32 45.1177C1852.88 44.7396 1853.45 44.3616 1854.03 43.9722C1855.2 43.1939 1856.37 42.4159 1857.54 41.6382C1860.45 39.7007 1863.35 37.7583 1866.25 35.8052C1867.26 35.1271 1868.26 34.4491 1869.3 33.7505C1870.17 33.1678 1871.03 32.5852 1871.92 31.9848C1872.93 31.33 1873.95 30.6752 1874.99 30.0005C1875.65 29.5279 1876.32 29.0553 1877 28.5683C1883.9 23.9535 1891.02 22.1663 1899.03 20.5571C1901.19 20.1233 1903.34 19.6619 1905.49 19.1958C1916.84 16.7993 1925.83 17.0961 1937.1 19.606Z" fill="#65748B"/>
<path d="M625 2161H875C875 2292.06 875 2292.06 874.837 2338.49C874.811 2345.87 874.788 2353.25 874.765 2360.63C874.721 2374.54 874.676 2388.44 874.63 2402.34C874.513 2437.62 874.403 2472.9 874.294 2508.17C874.285 2511.06 874.276 2513.94 874.267 2516.83C874.07 2580.46 873.903 2644.08 873.754 2707.71C873.746 2711.01 873.738 2714.31 873.731 2717.61L873.584 2780.31C873.09 2992.72 873.09 2992.72 872 3233C868.412 3232.34 865.821 3231.54 862.699 3229.63C861.895 3229.14 861.092 3228.66 860.264 3228.15C859.414 3227.63 858.563 3227.1 857.688 3226.56C856.797 3226.02 855.907 3225.48 854.99 3224.92C848.992 3221.26 843.031 3217.54 837.083 3213.79C827.067 3207.5 816.876 3201.49 806.711 3195.45C796.162 3189.17 796.162 3189.17 791.25 3185.81C787.337 3183.15 783.261 3180.93 779.09 3178.7C773.543 3175.65 768.151 3172.33 762.738 3169.05C756.534 3165.29 750.316 3161.57 744 3158V3156C743.417 3155.87 742.835 3155.75 742.234 3155.62C730.615 3152.39 719.139 3142.66 709.062 3136.19C705.257 3133.76 701.392 3131.52 697.426 3129.37C694.503 3127.72 691.662 3125.96 688.812 3124.19C684.32 3121.4 679.794 3118.72 675.188 3116.12C669.612 3112.98 664.178 3109.64 658.766 3106.22C652.109 3102.03 645.371 3097.98 638.625 3093.94C636.956 3092.94 636.956 3092.94 635.253 3091.91C630.199 3088.83 630.199 3088.83 625 3086V2161Z" fill="#292F59"/>
<path d="M2965 2161C2994.49 2160.98 3023.98 2160.96 3053.46 2160.95C3059.42 2160.95 3065.37 2160.95 3071.33 2160.94H3073.59C3085.66 2160.94 3097.73 2160.93 3109.79 2160.92C3122.17 2160.91 3134.54 2160.91 3146.92 2160.91C3154.56 2160.9 3162.2 2160.9 3169.84 2160.89H3187.39C3189.8 2160.89 3192.21 2160.88 3194.61 2160.88H3204.43C3205.39 2160.88 3206.36 2160.87 3207.35 2160.87C3208.66 2160.87 3208.66 2160.87 3209.99 2160.88H3212.28C3214 2161 3214 2161 3215 2162C3215.1 2164.01 3215.13 2166.02 3215.13 2168.04C3215.13 2169 3215.13 2169 3215.14 2169.98V2176.53C3215.14 2178.1 3215.14 2179.67 3215.15 2181.25V2194.35C3215.15 2199.08 3215.16 2203.82 3215.17 2208.55C3215.18 2217.96 3215.18 2227.37 3215.19 2236.77C3215.19 2248.04 3215.2 2259.3 3215.21 2270.56C3215.24 2297.78 3215.26 2325 3215.27 2352.23C3215.27 2361.24 3215.28 2370.25 3215.28 2379.27C3215.31 2426.46 3215.33 2473.65 3215.34 2520.84V2531.2V2533.28C3215.35 2540.23 3215.35 2547.17 3215.35 2554.12V2558.29C3215.36 2603.03 3215.39 2647.76 3215.43 2692.49C3215.46 2724.63 3215.49 2756.76 3215.5 2788.9V2790.9C3215.51 2804.75 3215.51 2818.6 3215.51 2832.44V2851.9V2855.76C3215.52 2876.34 3215.54 2896.92 3215.56 2917.5C3215.59 2938.17 3215.6 2958.83 3215.59 2979.5C3215.58 2991.79 3215.59 3004.08 3215.62 3016.38C3215.63 3024.58 3215.63 3032.77 3215.62 3040.97C3215.61 3045.65 3215.61 3050.33 3215.63 3055.01C3215.65 3059.26 3215.65 3063.51 3215.62 3067.76C3215.62 3069.3 3215.63 3070.83 3215.64 3072.37C3215.66 3074.44 3215.64 3076.51 3215.62 3078.59V3082.07C3215 3085 3215 3085 3212.66 3087.33C3209.85 3089.1 3207.16 3090 3204 3091L3203 3093C3201.43 3094.01 3199.82 3094.96 3198.19 3095.87C3192.44 3099.16 3186.74 3102.53 3181.06 3105.94C3179.77 3106.71 3179.77 3106.71 3178.45 3107.5C3174.62 3109.8 3170.8 3112.12 3167 3114.48C3166.41 3114.85 3165.82 3115.21 3165.22 3115.59C3163.68 3116.55 3162.16 3117.51 3160.63 3118.48C3158.14 3119.92 3155.7 3121.01 3153 3122V3124C3151.89 3124.53 3151.89 3124.53 3150.76 3125.07C3144.27 3128.23 3138.18 3131.66 3132.18 3135.68C3130 3137 3130 3137 3128 3137V3139C3126.25 3139.85 3126.25 3139.85 3124.46 3140.71C3120.36 3142.76 3116.53 3145.09 3112.69 3147.56C3106.41 3151.54 3100.05 3155.38 3093.63 3159.12C3092.39 3159.85 3092.39 3159.85 3091.12 3160.6C3090.35 3161.04 3089.58 3161.49 3088.79 3161.95C3087.76 3162.54 3087.76 3162.54 3086.72 3163.15C3085 3164 3085 3164 3083 3164V3166C3082.04 3166.51 3082.04 3166.51 3081.05 3167.03C3074.59 3170.5 3068.33 3174.2 3062.1 3178.07C3058.74 3180.16 3055.35 3182.19 3051.95 3184.21C3049.45 3185.73 3046.97 3187.27 3044.48 3188.82C3043.68 3189.32 3042.87 3189.82 3042.03 3190.34C3040.4 3191.35 3038.78 3192.37 3037.16 3193.39C3036.4 3193.86 3035.65 3194.32 3034.88 3194.8C3034.2 3195.23 3033.53 3195.65 3032.83 3196.09C3031 3197 3031 3197 3028 3197V3199C3027.46 3199.29 3026.93 3199.59 3026.37 3199.89C3020.59 3203.08 3014.9 3206.4 3009.25 3209.81C3008.37 3210.34 3007.5 3210.87 3006.6 3211.41C3001.78 3214.31 2996.97 3217.23 2992.19 3220.19C2991.19 3220.8 2990.2 3221.41 2989.18 3222.04C2987.46 3223.1 2985.75 3224.16 2984.05 3225.23C2982 3226.51 2979.94 3227.79 2977.88 3229.06C2977.24 3229.47 2976.59 3229.88 2975.93 3230.3C2974.34 3231.28 2972.67 3232.15 2971 3233C2970.01 3232.67 2969.02 3232.34 2968 3232C2968 3230.68 2967.99 3229.37 2967.99 3228.01C2967.82 3169.2 2967.64 3110.39 2967.47 3051.57C2967.47 3050.66 2967.47 3049.75 2967.46 3048.82C2967.4 3029 2967.35 3009.19 2967.29 2989.37C2967.26 2979.63 2967.23 2969.9 2967.2 2960.16C2967.2 2959.19 2967.2 2958.23 2967.19 2957.23C2967.11 2928.45 2967.02 2899.67 2966.94 2870.89C2966.81 2828.09 2966.69 2785.29 2966.56 2742.49L2966.5 2722.99C2966.27 2643.65 2966.03 2564.3 2965.73 2484.96C2965.71 2480.15 2965.69 2475.34 2965.68 2470.53C2965.53 2430.12 2965.53 2430.12 2965.37 2389.7C2965.3 2373.87 2965.24 2358.04 2965.18 2342.21C2965.18 2340.96 2965.17 2339.71 2965.17 2338.43C2964.95 2279.28 2964.95 2220.14 2965 2161Z" fill="#292F59"/>
<path d="M1479 760C1485.99 760.539 1492.1 762.068 1498.74 764.273C1499.74 764.598 1500.74 764.922 1501.77 765.257C1504.96 766.288 1508.13 767.331 1511.31 768.375C1514.48 769.411 1517.65 770.444 1520.82 771.472C1522.78 772.11 1524.74 772.752 1526.71 773.399C1533.4 775.581 1540.15 777.369 1547 779V780C1544.6 780 1542.2 779.999 1539.8 779.992C1538.1 779.997 1536.39 780.018 1534.69 780.07C1514.37 780.572 1496.82 770.663 1479 762V760Z" fill="#50687B"/>
<path d="M2361 760V762C2359.47 762.674 2359.47 762.674 2357.91 763.361C2354.13 765.025 2350.36 766.689 2346.58 768.354C2344.95 769.075 2343.31 769.795 2341.68 770.516L2334.63 773.621C2333.9 773.944 2333.17 774.267 2332.41 774.6C2328.68 776.24 2328.68 776.24 2325 778C2316.37 779.172 2307.69 779.116 2299 779C2302.11 776.925 2304.71 776.001 2308.27 774.863C2308.89 774.663 2309.51 774.462 2310.15 774.256C2312.18 773.603 2314.22 772.957 2316.25 772.313C2317.65 771.866 2319.05 771.418 2320.45 770.971C2323.97 769.851 2327.49 768.738 2331.01 767.629C2332.88 767.037 2334.76 766.443 2336.63 765.848C2339.79 764.848 2342.96 763.859 2346.12 762.875C2347.06 762.58 2347.99 762.285 2348.95 761.982C2349.82 761.717 2350.68 761.452 2351.57 761.18C2352.68 760.835 2352.68 760.835 2353.81 760.484C2356.26 759.942 2358.5 759.917 2361 760Z" fill="#486175"/>
<path d="M2620 2505H2621L2623 2518C2621.05 2516.05 2620.15 2514.47 2619 2512C2618.01 2512.33 2617.02 2512.66 2616 2513C2617.75 2507.25 2617.75 2507.25 2620 2505Z" fill="#4A508F"/>
<path d="M987 3310C987 3314.03 985.359 3315.81 983 3319C982.01 3319.5 982.01 3319.5 981 3320C981.188 3316.69 981.188 3316.69 982 3313C984.562 3311.06 984.562 3311.06 987 3310Z" fill="#2B2E5A"/>
<path d="M2856 3310C2858.19 3313.28 2859 3316.21 2860 3320C2858.06 3319.19 2858.06 3319.19 2856 3318C2854.9 3314.71 2855.2 3313.29 2856 3310Z" fill="#303363"/>
<g filter="url(#filter0_f_178_78)">
<path d="M2981 963.41L2607.45 976.116L2687.5 816.376L2185.67 562.356L2101.29 730.676C1899.4 656.956 1703.61 645.19 1568.01 684.994L1568.03 685.079C1548.64 690.617 1530.82 698.869 1514.03 706.488C1461.41 730.556 1423.22 763.875 1402.76 804.6L1930.49 1071.57L1852.64 1226.93L1951.81 1277.1C1590.93 1938.79 1146.63 2530.9 968.369 3250.5L1270.35 3401.79C1746.62 2803.45 1937.49 2134.69 2260.71 1433.39L2354.52 1480.85L2434.57 1321.11L2648.1 1627.78L2907.1 1757.44C3164.46 1588.42 3250.28 1357.82 3240.12 1092.79L2981.1 963.04L2980.99 963.414L2981 963.41Z" fill="white" fill-opacity="0.5"/>
</g>
<g filter="url(#filter1_d_178_78)">
<path d="M2926.3 1016.1L2566.68 1028.34L2643.74 874.56L2160.64 630.03L2079.41 792.06C1885.05 721.094 1696.57 709.768 1566.03 748.087L1566.04 748.169C1547.38 753.5 1530.22 761.444 1514.06 768.778C1463.4 791.948 1426.64 824.024 1406.94 863.228L1914.98 1120.24L1840.03 1269.79L1935.5 1318.09C1588.08 1955.08 1160.36 2525.09 988.74 3217.79L1279.46 3363.43C1737.97 2787.42 1921.72 2143.63 2232.89 1468.53L2323.2 1514.21L2400.26 1360.44L2605.82 1655.66L2855.16 1780.47C3102.92 1617.76 3185.54 1395.77 3175.76 1140.64L2926.4 1015.73L2926.3 1016.09V1016.1Z" fill="white"/>
</g>
<defs>
<filter id="filter0_f_178_78" x="868.369" y="462.356" width="2472.54" height="3039.43" filterUnits="userSpaceOnUse" color-interpolation-filters="sRGB">
<feFlood flood-opacity="0" result="BackgroundImageFix"/>
<feBlend mode="normal" in="SourceGraphic" in2="BackgroundImageFix" result="shape"/>
<feGaussianBlur stdDeviation="50" result="effect1_foregroundBlur_178_78"/>
</filter>
<filter id="filter1_d_178_78" x="984.74" y="630.03" width="2195.79" height="2741.4" filterUnits="userSpaceOnUse" color-interpolation-filters="sRGB">
<feFlood flood-opacity="0" result="BackgroundImageFix"/>
<feColorMatrix in="SourceAlpha" type="matrix" values="0 0 0 0 0 0 0 0 0 0 0 0 0 0 0 0 0 0 127 0" result="hardAlpha"/>
<feOffset dy="4"/>
<feGaussianBlur stdDeviation="2"/>
<feComposite in2="hardAlpha" operator="out"/>
<feColorMatrix type="matrix" values="0 0 0 0 0 0 0 0 0 0 0 0 0 0 0 0 0 0 0.25 0"/>
<feBlend mode="normal" in2="BackgroundImageFix" result="effect1_dropShadow_178_78"/>
<feBlend mode="normal" in="SourceGraphic" in2="effect1_dropShadow_178_78" result="shape"/>
</filter>
</defs>
</svg>
